<mxfile host="app.diagrams.net" modified="2021-06-05T08:18:13.969Z" agent="5.0 (Windows NT 10.0; Win64; x64) AppleWebKit/537.36 (KHTML, like Gecko) Chrome/91.0.4472.77 Safari/537.36" etag="Pe-3c-12cFeMAxW4zy3E" version="14.7.6" type="github">
  <diagram id="0wxDvJ-mUQAUWxwocrt-" name="Page-1">
    <mxGraphModel dx="1422" dy="794" grid="1" gridSize="10" guides="1" tooltips="1" connect="1" arrows="1" fold="1" page="1" pageScale="1" pageWidth="827" pageHeight="1169" math="0" shadow="0">
      <root>
        <mxCell id="0" />
        <mxCell id="1" parent="0" />
        <mxCell id="Dzx2ndOj7DnY9fpGUPLh-1" value="&lt;font style=&quot;vertical-align: inherit&quot;&gt;&lt;font style=&quot;vertical-align: inherit&quot;&gt;&lt;font style=&quot;vertical-align: inherit&quot;&gt;&lt;font style=&quot;vertical-align: inherit&quot;&gt;&amp;nbsp;캐릭터 동작 상세 정보&lt;/font&gt;&lt;/font&gt;&lt;/font&gt;&lt;/font&gt;" style="text;html=1;strokeColor=none;fillColor=none;align=center;verticalAlign=middle;whiteSpace=wrap;rounded=0;" vertex="1" parent="1">
          <mxGeometry x="290" y="10" width="170" height="30" as="geometry" />
        </mxCell>
        <mxCell id="Dzx2ndOj7DnY9fpGUPLh-2" value="&lt;b&gt;&lt;font style=&quot;font-size: 16px&quot;&gt;Grounded&lt;/font&gt;&lt;/b&gt;" style="rounded=0;whiteSpace=wrap;html=1;fillColor=#fff2cc;strokeColor=#d6b656;align=center;verticalAlign=top;" vertex="1" parent="1">
          <mxGeometry x="50" y="70" width="450" height="470" as="geometry" />
        </mxCell>
        <mxCell id="Dzx2ndOj7DnY9fpGUPLh-7" value="" style="edgeStyle=orthogonalEdgeStyle;rounded=0;orthogonalLoop=1;jettySize=auto;html=1;" edge="1" parent="1" source="Dzx2ndOj7DnY9fpGUPLh-5" target="Dzx2ndOj7DnY9fpGUPLh-6">
          <mxGeometry relative="1" as="geometry">
            <Array as="points">
              <mxPoint x="220" y="190" />
              <mxPoint x="220" y="190" />
            </Array>
          </mxGeometry>
        </mxCell>
        <mxCell id="Dzx2ndOj7DnY9fpGUPLh-5" value="&lt;b&gt;&lt;font style=&quot;font-size: 14px&quot;&gt;MoveState&lt;/font&gt;&lt;/b&gt;" style="rounded=1;whiteSpace=wrap;html=1;fillColor=#dae8fc;strokeColor=#6c8ebf;" vertex="1" parent="1">
          <mxGeometry x="90" y="150" width="120" height="50" as="geometry" />
        </mxCell>
        <mxCell id="Dzx2ndOj7DnY9fpGUPLh-9" style="edgeStyle=orthogonalEdgeStyle;rounded=0;orthogonalLoop=1;jettySize=auto;html=1;" edge="1" parent="1" source="Dzx2ndOj7DnY9fpGUPLh-6" target="Dzx2ndOj7DnY9fpGUPLh-5">
          <mxGeometry relative="1" as="geometry">
            <Array as="points">
              <mxPoint x="270" y="160" />
              <mxPoint x="270" y="160" />
            </Array>
          </mxGeometry>
        </mxCell>
        <mxCell id="Dzx2ndOj7DnY9fpGUPLh-6" value="&lt;b&gt;&lt;font style=&quot;font-size: 14px&quot;&gt;IdleState&lt;/font&gt;&lt;/b&gt;" style="rounded=1;whiteSpace=wrap;html=1;fillColor=#dae8fc;strokeColor=#6c8ebf;" vertex="1" parent="1">
          <mxGeometry x="340" y="150" width="120" height="50" as="geometry" />
        </mxCell>
        <mxCell id="Dzx2ndOj7DnY9fpGUPLh-10" value="xInput" style="rounded=0;whiteSpace=wrap;html=1;verticalAlign=middle;align=center;" vertex="1" parent="1">
          <mxGeometry x="250" y="150" width="60" height="20" as="geometry" />
        </mxCell>
        <mxCell id="Dzx2ndOj7DnY9fpGUPLh-11" value="!xInput" style="rounded=0;whiteSpace=wrap;html=1;verticalAlign=middle;align=center;" vertex="1" parent="1">
          <mxGeometry x="250" y="180" width="60" height="20" as="geometry" />
        </mxCell>
      </root>
    </mxGraphModel>
  </diagram>
</mxfile>
